<?xml version="1.0" encoding="utf-8"?>
<svg version="1.1" xmlns:xlink="http://www.w3.org/1999/xlink" width="24px" height="24px" xmlns="http://www.w3.org/2000/svg">
  <g transform="matrix(1 0 0 1 -442 -21 )">
    <path d="M 454 21  C 460.72 21  466 26.28  466 33  C 466 39.72  460.72 45  454 45  C 447.28 45  442 39.72  442 33  C 442 26.28  447.28 21  454 21  Z " fill-rule="nonzero" fill="#ffffff" stroke="none" />
    <path d="M 454 21.5  C 460.44 21.5  465.5 26.56  465.5 33  C 465.5 39.44  460.44 44.5  454 44.5  C 447.56 44.5  442.5 39.44  442.5 33  C 442.5 26.56  447.56 21.5  454 21.5  Z " stroke-width="1" stroke="#108ee9" fill="none" />
  </g>
</svg>