<?xml version="1.0" encoding="utf-8"?>
<svg version="1.1" xmlns:xlink="http://www.w3.org/1999/xlink" width="14px" height="14px" xmlns="http://www.w3.org/2000/svg">
  <g transform="matrix(1 0 0 1 -885 -1179 )">
    <path d="M 892 1179  C 895.92 1179  899 1182.08  899 1186  C 899 1189.92  895.92 1193  892 1193  C 888.08 1193  885 1189.92  885 1186  C 885 1182.08  888.08 1179  892 1179  Z " fill-rule="nonzero" fill="#ffffff" stroke="none" fill-opacity="0" />
    <path d="M 892 1179.5  C 895.64 1179.5  898.5 1182.36  898.5 1186  C 898.5 1189.64  895.64 1192.5  892 1192.5  C 888.36 1192.5  885.5 1189.64  885.5 1186  C 885.5 1182.36  888.36 1179.5  892 1179.5  Z " stroke-width="1" stroke="#1890ff" fill="none" />
  </g>
</svg>