<?xml version="1.0" encoding="utf-8"?>
<svg version="1.1" xmlns:xlink="http://www.w3.org/1999/xlink" width="14px" height="14px" xmlns="http://www.w3.org/2000/svg">
  <g transform="matrix(1 0 0 1 -885 -1357 )">
    <path d="M 892 1357  C 895.92 1357  899 1360.08  899 1364  C 899 1367.92  895.92 1371  892 1371  C 888.08 1371  885 1367.92  885 1364  C 885 1360.08  888.08 1357  892 1357  Z " fill-rule="nonzero" fill="#ffffff" stroke="none" fill-opacity="0" />
    <path d="M 892 1357.5  C 895.64 1357.5  898.5 1360.36  898.5 1364  C 898.5 1367.64  895.64 1370.5  892 1370.5  C 888.36 1370.5  885.5 1367.64  885.5 1364  C 885.5 1360.36  888.36 1357.5  892 1357.5  Z " stroke-width="1" stroke="#d9d9d9" fill="none" />
  </g>
</svg>