<?xml version="1.0" encoding="utf-8"?>
<svg version="1.1" xmlns:xlink="http://www.w3.org/1999/xlink" width="14px" height="14px" xmlns="http://www.w3.org/2000/svg">
  <g transform="matrix(1 0 0 1 -2631 -3642 )">
    <path d="M 2638 3643  C 2641.36 3643  2644 3645.64  2644 3649  C 2644 3652.36  2641.36 3655  2638 3655  C 2634.64 3655  2632 3652.36  2632 3649  C 2632 3645.64  2634.64 3643  2638 3643  Z " fill-rule="nonzero" fill="#ffffff" stroke="none" />
    <path d="M 2638 3643  C 2641.36 3643  2644 3645.64  2644 3649  C 2644 3652.36  2641.36 3655  2638 3655  C 2634.64 3655  2632 3652.36  2632 3649  C 2632 3645.64  2634.64 3643  2638 3643  Z " stroke-width="2" stroke="#91d5ff" fill="none" />
  </g>
</svg>