<?xml version="1.0" encoding="utf-8"?>
<svg version="1.1" xmlns:xlink="http://www.w3.org/1999/xlink" width="95px" height="95px" xmlns="http://www.w3.org/2000/svg">
  <g transform="matrix(1 0 0 1 -2796 -306 )">
    <path d="M 2796 306  L 2891 306  L 2891 401  L 2796 401  L 2796 306  " fill-rule="nonzero" fill="#cccccc" stroke="none" />
    <path d="M 2803 313  L 2884 313  L 2884 394  L 2803 394  L 2803 313  " fill-rule="nonzero" fill="#ffffff" stroke="none" />
    <path d="M 2852.525 334.5  C 2848.535 334.5  2845.4 331.365  2845.4 327.375  C 2845.4 323.385  2848.535 320.25  2852.525 320.25  C 2856.515 320.25  2859.65 323.385  2859.65 327.375  C 2859.65 331.365  2856.515 334.5  2852.525 334.5  " fill-rule="nonzero" fill="#cccccc" stroke="none" />
    <path d="M 2806 392  L 2806 350.2  L 2825 331.2  L 2851.6 346.4  L 2866.8 342.6  L 2882 346.4  L 2882 392  L 2806 392  " fill-rule="nonzero" fill="#169bd5" stroke="none" />
    <path d="M 2796.5 400.5  L 2796.5 306.5  L 2890.5 306.5  L 2890.5 400.5  L 2796.5 400.5  Z " stroke-width="1" stroke="#f59a23" fill="none" />
  </g>
</svg>