<?xml version="1.0" encoding="utf-8"?>
<svg version="1.1" xmlns:xlink="http://www.w3.org/1999/xlink" width="95px" height="95px" xmlns="http://www.w3.org/2000/svg">
  <g transform="matrix(1 0 0 1 -389 -306 )">
    <path d="M 389 306  L 484 306  L 484 401  L 389 401  L 389 306  " fill-rule="nonzero" fill="#cccccc" stroke="none" />
    <path d="M 396 313  L 477 313  L 477 394  L 396 394  L 396 313  " fill-rule="nonzero" fill="#ffffff" stroke="none" />
    <path d="M 445.525 334.5  C 441.535 334.5  438.4 331.365  438.4 327.375  C 438.4 323.385  441.535 320.25  445.525 320.25  C 449.515 320.25  452.65 323.385  452.65 327.375  C 452.65 331.365  449.515 334.5  445.525 334.5  " fill-rule="nonzero" fill="#cccccc" stroke="none" />
    <path d="M 399 392  L 399 350.2  L 418 331.2  L 444.6 346.4  L 459.8 342.6  L 475 346.4  L 475 392  L 399 392  " fill-rule="nonzero" fill="#169bd5" stroke="none" />
  </g>
</svg>